<svg width="21" height="21" viewBox="0 0 21 21" fill="none" xmlns="http://www.w3.org/2000/svg">
<g clip-path="url(#clip0_0_89)">
<path d="M6.83846 9.12692H2.28846C1.02308 9.12692 0 8.10385 0 6.83846V2.28846C0.893846 1.39462 1.39462 0.893846 2.28846 0H6.83846C8.10385 0 9.12692 1.02308 9.12692 2.28846V6.83846C8.23308 7.73231 7.73231 8.23308 6.83846 9.12692Z" fill="#D7DEF9"/>
<path d="M18.7115 9.12692H14.1615C12.8961 9.12692 11.873 8.10385 11.873 6.83846V2.28846C12.7669 1.39462 13.2677 0.893846 14.1615 0H18.7115C19.9769 0 21 1.02308 21 2.28846V6.83846C20.1061 7.73231 19.6054 8.23308 18.7115 9.12692Z" fill="#D7DEF9"/>
<path d="M6.83846 20.4509H2.28846C1.02308 20.4509 0 19.4278 0 18.1624V13.6124C0.893846 12.7186 1.39462 12.2178 2.28846 11.324H6.83846C8.10385 11.324 9.12692 12.3471 9.12692 13.6124V18.1624C8.23308 19.0563 7.73231 19.5571 6.83846 20.4509Z" fill="#D7DEF9"/>
<path d="M18.7115 20.4509H14.1615C12.8961 20.4509 11.873 19.4278 11.873 18.1624V13.6124C12.7669 12.7186 13.2677 12.2178 14.1615 11.324H18.7115C19.9769 11.324 21 12.3471 21 13.6124V18.1624C20.1061 19.0563 19.6054 19.5571 18.7115 20.4509Z" fill="#D7DEF9"/>
</g>
<defs>
<clipPath id="clip0_0_89">
<rect width="21" height="20.4508" fill="white"/>
</clipPath>
</defs>
</svg>
