<svg width="34" height="34" viewBox="0 0 34 34" fill="none" xmlns="http://www.w3.org/2000/svg">
<g clip-path="url(#clip0_28033_58132)">
<path d="M9.71973 8.72559L22.2941 25.166H24.2207L11.7895 8.72559H9.71973Z" fill="white"/>
<path d="M17 0C7.61175 0 0 7.61175 0 17C0 26.3882 7.61175 34 17 34C26.3882 34 34 26.3882 34 17C34 7.61175 26.3882 0 17 0ZM21.3392 27.2453L15.8567 20.0841L9.59225 27.2453H6.11008L14.2318 17.9605L5.66667 6.75467H12.8378L17.7877 13.3011L23.5153 6.75467H26.9932L19.3984 15.4332L28.3333 27.2439L21.3392 27.2453Z" fill="white"/>
</g>
<defs>
<clipPath id="clip0_28033_58132">
<rect width="34" height="34" fill="white"/>
</clipPath>
</defs>
</svg>
