<svg width="1137" height="695" viewBox="0 0 1137 695" fill="none" xmlns="http://www.w3.org/2000/svg">
<path fill-rule="evenodd" clip-rule="evenodd" d="M12.4734 0C12.0803 0 11.7032 0.156182 11.4252 0.434191L0.434192 11.4252C0.156184 11.7032 0 12.0803 0 12.4734V688.974C0 692.249 2.65482 694.904 5.9297 694.904H1124.53C1124.92 694.904 1125.3 694.748 1125.57 694.47L1136.57 683.479C1136.84 683.201 1137 682.824 1137 682.431V5.9297C1137 2.65482 1134.34 0 1131.07 0H12.4734ZM1135.52 675.633L1117.73 693.422H5.9297C3.47354 693.422 1.48242 691.43 1.48242 688.974V19.2715L19.2715 1.48242H1131.07C1133.53 1.48242 1135.52 3.47354 1135.52 5.9297V675.633Z" fill="#2D76FF"/>
</svg>
