<svg width="489" height="882" viewBox="0 0 489 882" fill="none" xmlns="http://www.w3.org/2000/svg">
<path fill-rule="evenodd" clip-rule="evenodd" d="M0 26.4011C0 23.8213 1.0248 21.3472 2.84896 19.5231L19.5231 2.84896C21.3472 1.0248 23.8213 0 26.4011 0H474.41C482.468 0 489 6.53236 489 14.5904V856.072C489 858.651 487.975 861.125 486.151 862.95L470.45 878.651C468.626 880.475 466.152 881.5 463.572 881.5H14.5904C6.53236 881.5 0 874.968 0 866.91V26.4011ZM14.5904 879.555C7.60677 879.555 1.94539 873.893 1.94539 866.91V32.099L32.099 1.94539H474.41C481.393 1.94539 487.055 7.60677 487.055 14.5904V850.374L457.874 879.555H14.5904Z" fill="#364066"/>
</svg>
