<svg width="130" height="26" viewBox="0 0 130 26" fill="none" xmlns="http://www.w3.org/2000/svg">
<path d="M25.795 0.524561L23.0319 15.7718C22.4179 18.9891 23.0703 21.3322 24.9123 22.8709C26.7544 24.4096 29.7093 25.179 33.854 25.179C37.8451 25.179 40.9151 24.4446 43.0642 22.9059C45.2133 21.3671 46.5948 19.0241 47.1704 15.8068L49.8184 0.524561H42.6804L40.0325 15.562C39.879 16.4013 39.6487 17.1007 39.3417 17.6253C39.0347 18.1848 38.651 18.6044 38.1904 18.9192C37.7299 19.2339 37.1543 19.4437 36.5403 19.5836C35.8879 19.7235 35.1587 19.7585 34.3145 19.7585C32.741 19.7585 31.5898 19.4437 30.8606 18.8143C30.1315 18.1848 29.9012 17.1007 30.2082 15.527L32.9329 0.524561H25.795Z" fill="white"/>
<path d="M64.9086 24.6544H72.3151L67.2111 16.3313C68.5159 16.0866 69.5904 15.6669 70.4731 15.0724C71.3557 14.4779 72.0849 13.7785 72.6221 13.0091C73.1594 12.2398 73.5432 11.4354 73.7734 10.5961C74.0037 9.75684 74.1188 8.91755 74.1188 8.14819C74.1188 5.49041 73.2745 3.53205 71.586 2.34304C69.8974 1.15403 67.2111 0.524561 63.527 0.524561H52.7817L48.5987 24.6544H55.6983L58.9603 5.70023H62.4909C63.9875 5.70023 65.1004 5.94503 65.868 6.36468C66.5971 6.8193 66.9809 7.6586 66.9809 8.91755C66.9809 9.54702 66.8657 10.1415 66.6739 10.7011C66.4436 11.2606 66.1366 11.7502 65.7528 12.1698C65.3691 12.5895 64.8702 12.9392 64.2945 13.184C63.6805 13.4288 63.0281 13.5337 62.2606 13.5337H59.037L64.9086 24.6544Z" fill="white"/>
<path d="M93.9865 12.4496V12.0999C95.5983 11.8201 96.9031 11.1557 97.8241 10.1415C98.7451 9.16234 99.2056 7.90339 99.2056 6.39965C99.2056 4.47626 98.5149 3.00749 97.1333 2.02831C95.7518 1.04912 93.526 0.524561 90.4943 0.524561H78.828L74.645 24.6544H90.0338C91.5688 24.6544 92.8736 24.4795 93.9481 24.0599C95.0226 23.6402 95.8669 23.1157 96.5577 22.4512C97.2101 21.8218 97.6706 21.0524 97.9776 20.2131C98.2846 19.3738 98.4381 18.5345 98.4381 17.6602C98.4381 16.1915 98.0544 15.0374 97.2868 14.1981C96.5193 13.3588 95.4448 12.7643 93.9865 12.4496ZM83.4715 14.6178H88.3452C89.4965 14.6178 90.3024 14.8276 90.8013 15.1773C91.2618 15.527 91.5304 16.1215 91.5304 16.8909C91.5304 17.7302 91.2234 18.3597 90.6862 18.8143C90.1489 19.2689 89.3046 19.4787 88.1533 19.4787H82.6272L83.4715 14.6178ZM85.0065 5.70023H89.2279C90.3024 5.70023 91.1083 5.87509 91.6072 6.18983C92.0677 6.53953 92.3363 7.0641 92.3363 7.79848C92.3363 8.53287 92.0677 9.12737 91.5688 9.61696C91.0315 10.1066 90.1873 10.3513 88.9592 10.3513H84.2006L85.0065 5.70023Z" fill="white"/>
<path d="M116.53 5.42047C117.605 5.42047 118.564 5.56035 119.37 5.84012C120.137 6.11988 120.79 6.46959 121.289 6.92421C121.788 7.4138 122.171 7.97333 122.402 8.60281C122.632 9.26725 122.747 9.96667 122.747 10.7011C122.747 11.96 122.555 13.149 122.248 14.2331C121.903 15.3522 121.404 16.2964 120.751 17.1007C120.061 17.94 119.216 18.5695 118.219 19.0591C117.182 19.5487 115.993 19.7585 114.611 19.7585C113.498 19.7585 112.539 19.6536 111.771 19.3738C111.004 19.094 110.351 18.7443 109.853 18.2547C109.354 17.7651 109.008 17.2056 108.778 16.5761C108.548 15.9467 108.433 15.2473 108.433 14.4779C108.433 13.2189 108.586 12.0649 108.932 10.9459C109.239 9.86176 109.737 8.91755 110.428 8.07825C111.081 7.27392 111.925 6.64444 112.923 6.15485C113.92 5.66526 115.148 5.42047 116.53 5.42047ZM114.419 25.179C117.144 25.179 119.485 24.7943 121.481 23.955C123.438 23.1157 125.049 22.0316 126.316 20.6328C127.582 19.2689 128.503 17.6952 129.117 15.9117C129.693 14.1632 130 12.3097 130 10.4213C130 8.8476 129.731 7.4138 129.194 6.11988C128.657 4.86094 127.813 3.74187 126.738 2.83263C125.625 1.92339 124.244 1.22398 122.593 0.734387C120.905 0.244796 118.948 0 116.722 0C113.959 0 111.618 0.41965 109.661 1.25895C107.704 2.09825 106.092 3.18234 104.825 4.5462C103.559 5.94503 102.638 7.51872 102.062 9.26725C101.448 11.0508 101.18 12.8692 101.18 14.7577C101.18 16.3663 101.448 17.8001 101.985 19.0591C102.523 20.353 103.329 21.4371 104.442 22.3463C105.516 23.2556 106.898 23.955 108.586 24.4446C110.236 24.9342 112.194 25.179 114.419 25.179Z" fill="white"/>
<path d="M23.9031 0.547369L22.9852 6.13211H0L0.956125 0.547369H23.9031Z" fill="white"/>
<path d="M11.7412 24.6316H4.62765L7.49639 8.68173L14.9168 6.97586L11.7412 24.6316Z" fill="white"/>
</svg>
