<svg width="16" height="12" viewBox="0 0 16 12" fill="none" xmlns="http://www.w3.org/2000/svg">
<g clip-path="url(#clip0_28033_58094)">
<path fill-rule="evenodd" clip-rule="evenodd" d="M0 0H22.8002V0.923086H0V0ZM0 1.84617H22.8002V2.76926H0V1.84617ZM0 3.69234H22.8002V4.61543H0V3.69234ZM0 5.53852H22.8002V6.4616H0V5.53852ZM0 7.38469H22.8002V8.30777H0V7.38469ZM0 9.23086H22.8002V10.1539H0V9.23086ZM0 11.077H22.8002V12.0001H0V11.077Z" fill="#BD3D44"/>
<path fill-rule="evenodd" clip-rule="evenodd" d="M0 0.922852H22.8002V1.84594H0V0.922852ZM0 2.76902H22.8002V3.69211H0V2.76902ZM0 4.6152H22.8002V5.53828H0V4.6152ZM0 6.46137H22.8002V7.38445H0V6.46137ZM0 8.30754H22.8002V9.23063H0V8.30754ZM0 10.1537H22.8002V11.0768H0V10.1537Z" fill="white"/>
<path fill-rule="evenodd" clip-rule="evenodd" d="M0 0H9.12V6.46148H0V0Z" fill="#192F5D"/>
<path fill-rule="evenodd" clip-rule="evenodd" d="M0.759718 0.276367L0.842687 0.531742H1.11123L0.893968 0.689594L0.97696 0.944969L0.759695 0.787141L0.542476 0.944969L0.625445 0.689594L0.408203 0.531742H0.676726L0.759718 0.276367ZM2.27971 0.276367L2.3627 0.531742H2.63125L2.41398 0.689594L2.49697 0.944969L2.27971 0.787141L2.06249 0.944969L2.14546 0.689594L1.92822 0.531742H2.19674L2.27971 0.276367ZM3.79977 0.276367L3.88274 0.531742H4.15128L3.93402 0.689594L4.01701 0.944969L3.79977 0.787141L3.58253 0.944969L3.66549 0.689594L3.44825 0.531742H3.7168L3.79977 0.276367ZM5.31973 0.276367L5.4027 0.531742H5.67123L5.45398 0.689594L5.53695 0.944969L5.31973 0.787141L5.10247 0.944969L5.18546 0.689594L4.96819 0.531742H5.23674L5.31973 0.276367ZM6.83977 0.276367L6.92274 0.531742H7.19128L6.97402 0.689594L7.05701 0.944969L6.83975 0.787141L6.62253 0.944969L6.7055 0.689594L6.48826 0.531742H6.75678L6.83977 0.276367ZM8.35981 0.276367L8.44278 0.531742H8.71132L8.49406 0.689594L8.57705 0.944969L8.35981 0.787141L8.14254 0.944969L8.22556 0.689594L8.00829 0.531742H8.27684L8.35981 0.276367ZM1.51975 0.922539L1.60272 1.17791H1.87126L1.654 1.33574L1.73701 1.59114L1.51975 1.43331L1.30251 1.59114L1.38547 1.33574L1.16823 1.17791H1.43678L1.51975 0.922539ZM3.03971 0.922539L3.12268 1.17791H3.39121L3.17396 1.33574L3.25693 1.59114L3.03971 1.43331L2.82245 1.59114L2.90544 1.33574L2.68818 1.17791H2.95672L3.03971 0.922539ZM4.55975 0.922539L4.64272 1.17791H4.91127L4.694 1.33574L4.77699 1.59114L4.55973 1.43331L4.34251 1.59114L4.42548 1.33574L4.20824 1.17791H4.47676L4.55975 0.922539ZM6.07979 0.922539L6.16276 1.17791H6.4313L6.21404 1.33574L6.29703 1.59114L6.07979 1.43331L5.86252 1.59114L5.94556 1.33574L5.7283 1.17791H5.99684L6.07979 0.922539ZM7.59975 0.922539L7.68272 1.17791H7.95124L7.734 1.33574L7.81697 1.59114L7.59975 1.43331L7.38249 1.59114L7.46548 1.33574L7.24821 1.17791H7.51676L7.59975 0.922539ZM0.759718 1.56869L0.842687 1.82406H1.11123L0.893968 1.98191L0.97696 2.23729L0.759695 2.07946L0.542476 2.23729L0.625445 1.98191L0.408203 1.82406H0.676726L0.759718 1.56869ZM2.27971 1.56869L2.3627 1.82406H2.63125L2.41398 1.98191L2.49697 2.23729L2.27971 2.07946L2.06249 2.23729L2.14546 1.98191L1.92822 1.82406H2.19674L2.27971 1.56869ZM3.79977 1.56869L3.88274 1.82406H4.15128L3.93402 1.98191L4.01701 2.23729L3.79977 2.07946L3.58253 2.23729L3.66549 1.98191L3.44825 1.82406H3.7168L3.79977 1.56869ZM5.31973 1.56869L5.4027 1.82406H5.67123L5.45398 1.98191L5.53695 2.23729L5.31973 2.07946L5.10247 2.23729L5.18546 1.98191L4.96819 1.82406H5.23674L5.31973 1.56869ZM6.83977 1.56869L6.92274 1.82406H7.19128L6.97402 1.98191L7.05701 2.23729L6.83975 2.07946L6.62253 2.23729L6.7055 1.98191L6.48826 1.82406H6.75678L6.83977 1.56869ZM8.35981 1.56869L8.44278 1.82406H8.71132L8.49406 1.98191L8.57705 2.23729L8.35981 2.07946L8.14254 2.23729L8.22556 1.98191L8.00829 1.82406H8.27684L8.35981 1.56869ZM1.51975 2.21484L1.60272 2.47023H1.87126L1.654 2.62806L1.73701 2.88346L1.51975 2.72563L1.30251 2.88346L1.38547 2.62806L1.16823 2.47023H1.43678L1.51975 2.21484ZM3.03971 2.21484L3.12268 2.47023H3.39121L3.17396 2.62806L3.25693 2.88346L3.03971 2.72563L2.82245 2.88346L2.90544 2.62806L2.68818 2.47023H2.95672L3.03971 2.21484ZM4.55975 2.21484L4.64272 2.47023H4.91127L4.694 2.62806L4.77699 2.88346L4.55973 2.72563L4.34251 2.88346L4.42548 2.62806L4.20824 2.47023H4.47676L4.55975 2.21484ZM6.07979 2.21484L6.16276 2.47023H6.4313L6.21404 2.62806L6.29703 2.88346L6.07979 2.72563L5.86252 2.88346L5.94554 2.62806L5.72827 2.47023H5.99682L6.07979 2.21484ZM7.59975 2.21484L7.68272 2.47023H7.95124L7.734 2.62806L7.81697 2.88346L7.59975 2.72563L7.38249 2.88346L7.46548 2.62806L7.24821 2.47023H7.51676L7.59975 2.21484ZM0.759718 2.86101L0.842687 3.11638H1.11123L0.893968 3.27423L0.97696 3.52961L0.759695 3.37178L0.542476 3.52961L0.625445 3.27423L0.408203 3.11638H0.676726L0.759718 2.86101ZM2.27971 2.86101L2.3627 3.11638H2.63125L2.41398 3.27423L2.49697 3.52961L2.27971 3.37178L2.06249 3.52961L2.14546 3.27423L1.92822 3.11638H2.19674L2.27971 2.86101ZM3.79977 2.86101L3.88274 3.11638H4.15128L3.93402 3.27423L4.01701 3.52961L3.79977 3.37178L3.58253 3.52961L3.66549 3.27423L3.44825 3.11638H3.7168L3.79977 2.86101ZM5.31973 2.86101L5.4027 3.11638H5.67123L5.45398 3.27423L5.53695 3.52961L5.31973 3.37178L5.10247 3.52961L5.18546 3.27423L4.96819 3.11638H5.23674L5.31973 2.86101ZM6.83977 2.86101L6.92274 3.11638H7.19128L6.97402 3.27423L7.05701 3.52961L6.83975 3.37178L6.62253 3.52961L6.7055 3.27423L6.48826 3.11638H6.75678L6.83977 2.86101ZM8.35981 2.86101L8.44278 3.11638H8.71132L8.49406 3.27423L8.57705 3.52961L8.35981 3.37178L8.14254 3.52961L8.22556 3.27423L8.00829 3.11638H8.27684L8.35981 2.86101ZM1.51975 3.50716L1.60272 3.76256H1.87126L1.654 3.92038L1.73701 4.17578L1.51975 4.01795L1.30251 4.17578L1.38547 3.92038L1.16823 3.76256H1.43678L1.51975 3.50716ZM3.03971 3.50716L3.12268 3.76256H3.39121L3.17396 3.92038L3.25693 4.17578L3.03971 4.01795L2.82245 4.17578L2.90544 3.92038L2.68818 3.76256H2.95672L3.03971 3.50716ZM4.55975 3.50716L4.64272 3.76256H4.91127L4.694 3.92038L4.77699 4.17578L4.55973 4.01795L4.34251 4.17578L4.42548 3.92038L4.20824 3.76256H4.47676L4.55975 3.50716ZM6.07979 3.50716L6.16276 3.76256H6.4313L6.21404 3.92038L6.29703 4.17578L6.07979 4.01795L5.86252 4.17578L5.94554 3.92038L5.72827 3.76256H5.99682L6.07979 3.50716ZM7.59975 3.50716L7.68272 3.76256H7.95124L7.734 3.92038L7.81697 4.17578L7.59975 4.01795L7.38249 4.17578L7.46548 3.92038L7.24821 3.76256H7.51676L7.59975 3.50716Z" fill="white"/>
<path fill-rule="evenodd" clip-rule="evenodd" d="M0.759718 4.15332L0.842687 4.4087H1.11123L0.893968 4.56655L0.97696 4.82192L0.759695 4.66409L0.542476 4.82192L0.625445 4.56655L0.408203 4.4087H0.676726L0.759718 4.15332ZM2.27971 4.15332L2.3627 4.4087H2.63125L2.41398 4.56655L2.49697 4.82192L2.27971 4.66409L2.06249 4.82192L2.14546 4.56655L1.92822 4.4087H2.19674L2.27971 4.15332ZM3.79977 4.15332L3.88274 4.4087H4.15128L3.93402 4.56655L4.01701 4.82192L3.79977 4.66409L3.58253 4.82192L3.66549 4.56655L3.44825 4.4087H3.7168L3.79977 4.15332ZM5.31973 4.15332L5.4027 4.4087H5.67123L5.45398 4.56655L5.53695 4.82192L5.31973 4.66409L5.10247 4.82192L5.18546 4.56655L4.96819 4.4087H5.23674L5.31973 4.15332ZM6.83977 4.15332L6.92274 4.4087H7.19128L6.97402 4.56655L7.05701 4.82192L6.83975 4.66409L6.62253 4.82192L6.7055 4.56655L6.48826 4.4087H6.75678L6.83977 4.15332ZM8.35981 4.15332L8.44278 4.4087H8.71132L8.49406 4.56655L8.57705 4.82192L8.35981 4.66409L8.14254 4.82192L8.22556 4.56655L8.00829 4.4087H8.27684L8.35981 4.15332ZM1.51975 4.79947L1.60272 5.05487H1.87126L1.654 5.21269L1.73701 5.46809L1.51975 5.31026L1.30251 5.46809L1.38547 5.21269L1.16823 5.05487H1.43678L1.51975 4.79947ZM3.03971 4.79947L3.12268 5.05487H3.39121L3.17396 5.21269L3.25693 5.46809L3.03971 5.31026L2.82245 5.46809L2.90544 5.21269L2.68818 5.05487H2.95672L3.03971 4.79947ZM4.55975 4.79947L4.64272 5.05487H4.91127L4.694 5.21269L4.77699 5.46809L4.55973 5.31026L4.34251 5.46809L4.42548 5.21269L4.20824 5.05487H4.47676L4.55975 4.79947ZM6.07979 4.79947L6.16276 5.05487H6.4313L6.21404 5.21269L6.29703 5.46809L6.07979 5.31026L5.86252 5.46809L5.94554 5.21269L5.72827 5.05487H5.99682L6.07979 4.79947ZM7.59975 4.79947L7.68272 5.05487H7.95124L7.734 5.21269L7.81697 5.46809L7.59975 5.31026L7.38249 5.46809L7.46548 5.21269L7.24821 5.05487H7.51676L7.59975 4.79947Z" fill="white"/>
<path fill-rule="evenodd" clip-rule="evenodd" d="M0.759718 5.44531L0.842687 5.70069H1.11123L0.893968 5.85854L0.97696 6.11392L0.759695 5.95609L0.542476 6.11392L0.625445 5.85854L0.408203 5.70069H0.676726L0.759718 5.44531ZM2.27971 5.44531L2.3627 5.70069H2.63125L2.41398 5.85854L2.49697 6.11392L2.27971 5.95609L2.06249 6.11392L2.14546 5.85854L1.92822 5.70069H2.19674L2.27971 5.44531ZM3.79977 5.44531L3.88274 5.70069H4.15128L3.93402 5.85854L4.01701 6.11392L3.79977 5.95609L3.58253 6.11392L3.66549 5.85854L3.44825 5.70069H3.7168L3.79977 5.44531ZM5.31973 5.44531L5.4027 5.70069H5.67123L5.45398 5.85854L5.53695 6.11392L5.31973 5.95609L5.10247 6.11392L5.18546 5.85854L4.96819 5.70069H5.23674L5.31973 5.44531ZM6.83977 5.44531L6.92274 5.70069H7.19128L6.97402 5.85854L7.05701 6.11392L6.83975 5.95609L6.62253 6.11392L6.7055 5.85854L6.48826 5.70069H6.75678L6.83977 5.44531ZM8.35981 5.44531L8.44278 5.70069H8.71132L8.49406 5.85854L8.57705 6.11392L8.35981 5.95609L8.14254 6.11392L8.22556 5.85854L8.00829 5.70069H8.27684L8.35981 5.44531Z" fill="white"/>
</g>
<defs>
<clipPath id="clip0_28033_58094">
<rect width="16" height="12" rx="2" fill="white"/>
</clipPath>
</defs>
</svg>
