<svg width="127" height="62" viewBox="0 0 127 62" fill="none" xmlns="http://www.w3.org/2000/svg">
<g clip-path="url(#clip0_28033_58253)">
<path d="M4.9933 51.7393H4.61803L9.78216 62.0029H12.2242L7.06007 51.7393H4.9933ZM119.94 51.7393L114.776 62.0029H117.218L122.382 51.7393H119.94ZM112.328 54.3045L119.338 40.9632H121.836L126.997 31.2148H82.0547L80.9737 33.2676H46.0235L44.9425 31.2148H0L5.16133 40.9632H7.65937L14.669 54.3045H12.2242L16.2989 62.0002H52.2154L53.0499 60.4599H73.9445L74.779 62.0002H110.695L114.77 54.3045H112.325H112.328Z" fill="#209EFF"/>
<path d="M93.5618 25.4554H97.7178L98.5159 24.6659V12.5712L92.7609 6.64296V24.6687L93.559 25.4582L93.5618 25.4554ZM107.573 25.4554L113.485 9.56552L109.466 4.90327L102.115 24.6659L102.619 25.4554H107.573ZM98.5159 0.789509L97.7178 0H90.204V1.50699L98.5159 10.1168V0.789509ZM120.839 25.4554H125.793L126.297 24.6659L118.206 3.01121L119.64 1.50976V0H111.289L110.177 2.98628L114.19 7.66516L120.836 25.4582L120.839 25.4554ZM124.465 2.03333H124.729C124.757 2.03333 124.776 2.02779 124.782 2.01948C124.79 2.0084 124.796 1.99178 124.796 1.96685V0.465395H124.81L125.143 1.52915C125.157 1.57071 125.182 1.59287 125.224 1.59287H125.493C125.535 1.59287 125.56 1.57071 125.574 1.52915L125.899 0.470935H125.913V1.96962C125.913 2.01394 125.936 2.0361 125.98 2.0361H126.244C126.288 2.0361 126.311 2.01394 126.311 1.96962V0.066485C126.311 0.0221617 126.288 0 126.244 0H125.77C125.737 0 125.717 0.013851 125.709 0.0443233L125.367 1.16072H125.348L125.009 0.0443233C124.997 0.013851 124.978 0 124.947 0H124.471C124.426 0 124.404 0.0221617 124.404 0.066485V1.96685C124.404 2.01117 124.426 2.03333 124.471 2.03333H124.465ZM122.88 0.349046H123.244C123.267 0.349046 123.281 0.360127 123.281 0.385059V1.96962C123.281 2.01394 123.303 2.0361 123.351 2.0361H123.62C123.664 2.0361 123.687 2.01394 123.687 1.96962V0.382289C123.687 0.360127 123.701 0.346276 123.726 0.346276H124.09C124.135 0.346276 124.157 0.324114 124.157 0.279791V0.066485C124.157 0.0221617 124.135 0 124.09 0H122.883C122.838 0 122.816 0.0221617 122.816 0.066485V0.282561C122.816 0.326884 122.838 0.349046 122.883 0.349046H122.88ZM42.4918 25.4554L48.4037 9.56552L44.385 4.9005L37.0309 24.6631L37.857 25.4527H42.4918V25.4554ZM76.2183 25.4554L85.3955 0.789509L84.8495 0H79.9346L73.0957 18.3803L66.2289 0H61.2748L60.7707 0.789509L69.9844 25.4554H76.2183ZM3.25119 24.6659L4.04934 25.4554H8.20529L9.00343 24.6659V10.5933H9.81838L14.9181 18.8152H20.6731L25.6328 10.5933H26.2685V24.6659L27.0667 25.4554H31.2226L32.0208 24.6659V0.789509L31.2226 0H26.2685L17.7578 14.1114L9.00623 0H0.694336V1.50699L3.25119 4.18855V24.6631V24.6659ZM49.1122 7.66239L55.7606 25.4554H60.7147L61.2188 24.6659L52.0024 0H43.6905V1.50699L45.0991 2.98351L49.1122 7.66239Z" fill="white"/>
<path d="M75.745 0.789509L75.3025 0H70.9869L70.5444 0.789509L73.1461 6.56262L75.745 0.789509Z" fill="#209EFF"/>
<path d="M59.9896 56.8944L60.6365 57.5344H64.0055L64.6524 56.8944V47.0907L59.9896 42.2844V56.8944ZM57.9172 36.9046V38.1263L64.6552 45.1044V37.5445L64.0083 36.9046H57.92H57.9172ZM49.891 36.9046L42.9933 48.3428L35.8996 36.9046H29.1616V38.1263L31.234 40.3009V56.8972L31.8809 57.5371H35.2499L35.8968 56.8972V45.4923H36.5578L40.6913 52.1574H45.3541L49.3729 45.4923H49.8882V56.8972L50.5351 57.5371H53.9041L54.551 56.8972V37.5473L53.9041 36.9074H49.8882L49.891 36.9046ZM17.8252 46.9799L26.0755 47.3372V45.664L17.8252 46.0214V46.9771V46.9799ZM89.8905 36.9046V38.1263L96.6286 45.1044V37.5445L95.9816 36.9046H89.8933H89.8905ZM100.925 45.6668V47.34L109.175 46.9826V46.0269L100.925 45.6696V45.6668ZM81.9679 36.9046V45.4895L81.9931 49.0354L74.7118 36.9019H67.9738V38.1235L70.0462 40.2981V56.8944L70.6931 57.5344H74.0621L74.709 56.8944V45.4895H75.3699L82.612 57.5344H85.981L86.628 56.8944V37.5445L85.981 36.9046H81.9651H81.9679ZM91.9657 56.8944L92.6126 57.5344H95.9816L96.6286 56.8944V47.0907L91.9657 42.2844V56.8944Z" fill="white"/>
</g>
<defs>
<clipPath id="clip0_28033_58253">
<rect width="127" height="62" fill="white"/>
</clipPath>
</defs>
</svg>
