<svg width="65" height="140" viewBox="0 0 65 140" fill="none" xmlns="http://www.w3.org/2000/svg">
<g clip-path="url(#clip0_28033_58530)">
<path d="M9.65723 89H102C105.866 89 109 92.134 109 96V130.343C109 131.138 108.684 131.902 108.121 132.465L102.465 138.121C101.902 138.684 101.138 139 100.343 139H8C4.13401 139 1 135.866 1 132V97.6572C1 96.8616 1.3163 96.0978 1.87891 95.5352L7.53516 89.8789C8.09777 89.3163 8.86158 89 9.65723 89Z" fill="url(#paint0_radial_28033_58530)" stroke="#4EECFF" stroke-width="2"/>
<path d="M32 130C33.1953 130 34.1985 129.206 34.4747 128.135C36.3263 127.797 38.1055 127.081 39.7086 126.019C42.0163 124.49 43.8647 122.306 45.0402 119.719C45.4568 118.802 45.7829 117.848 46.016 116.872H47.3C48.2389 116.872 49 116.137 49 115.231V108.667C49 107.76 48.2389 107.026 47.3 107.026H45.2093L45.175 106.945V106.94L45.1225 106.824C44.9745 106.487 44.8147 106.155 44.6433 105.83C43.6375 103.861 42.5103 102.397 40.9855 101.292C39.6947 100.215 38.2318 99.3731 36.6567 98.8098C34.074 97.8862 31.295 97.7496 28.6414 98.4157C25.9878 99.0819 23.568 100.524 21.6618 102.574C20.499 103.825 19.5563 105.271 18.8683 106.845L18.825 106.933V106.945L18.7907 107.026H16.7C15.7611 107.026 15 107.76 15 108.667V115.231C15 116.137 15.7611 116.872 16.7 116.872H20.1V109.519L20.1027 109.509C20.6724 107.471 21.7095 105.606 23.1287 104.079C24.7644 102.319 26.8409 101.082 29.118 100.511C31.3951 99.939 33.7797 100.056 35.996 100.849C38.2123 101.641 40.1697 103.077 41.6418 104.989C42.6763 106.333 43.4415 107.874 43.9 109.519V116.84C43.7142 117.507 43.4771 118.159 43.1899 118.791C42.1812 121.011 40.595 122.885 38.6148 124.197C37.2083 125.129 35.6439 125.75 34.0166 126.032C33.5501 125.451 32.8203 125.077 32 125.077C30.5917 125.077 29.45 126.179 29.45 127.538C29.45 128.898 30.5917 130 32 130Z" fill="white"/>
<path fill-rule="evenodd" clip-rule="evenodd" d="M31.9837 103.585C26.3395 103.585 21.7673 107.882 21.7673 113.181C21.7673 115.609 22.7283 117.826 24.3119 119.517C24.1928 120.082 23.9546 120.875 23.4782 121.615C23.3953 121.744 23.3164 121.866 23.242 121.981C22.538 123.066 22.2306 123.541 22.7202 123.932C23.2616 124.366 24.9968 123.855 26.1094 123.448C26.778 123.202 27.7823 122.619 28.4726 122.197C29.569 122.574 30.7493 122.78 31.9837 122.78C37.6251 122.78 42.2 118.482 42.2 113.181C42.2 107.879 37.6251 103.585 31.9837 103.585ZM26.7359 115.419C27.6745 115.419 28.4353 114.685 28.4353 113.779C28.4353 112.873 27.6745 112.138 26.7359 112.138C25.7974 112.138 25.0366 112.873 25.0366 113.779C25.0366 114.685 25.7974 115.419 26.7359 115.419ZM31.902 115.419C32.8405 115.419 33.6013 114.685 33.6013 113.779C33.6013 112.873 32.8405 112.138 31.902 112.138C30.9634 112.138 30.2026 112.873 30.2026 113.779C30.2026 114.685 30.9634 115.419 31.902 115.419ZM38.7673 113.779C38.7673 114.685 38.0065 115.419 37.068 115.419C36.1294 115.419 35.3686 114.685 35.3686 113.779C35.3686 112.873 36.1294 112.138 37.068 112.138C38.0065 112.138 38.7673 112.873 38.7673 113.779Z" fill="white"/>
</g>
<defs>
<radialGradient id="paint0_radial_28033_58530" cx="0" cy="0" r="1" gradientUnits="userSpaceOnUse" gradientTransform="translate(80 114) rotate(90) scale(40.3 124)">
<stop stop-color="#0496C6"/>
<stop offset="1" stop-color="#0991C8"/>
</radialGradient>
<clipPath id="clip0_28033_58530">
<rect width="65" height="140" fill="white"/>
</clipPath>
</defs>
</svg>
