<svg width="34" height="34" viewBox="0 0 34 34" fill="none" xmlns="http://www.w3.org/2000/svg">
<path d="M33.2995 8.59895C32.9077 7.19165 31.7593 6.08229 30.3029 5.70335C27.6423 5 16.9996 5 16.9996 5C16.9996 5 6.35737 5 3.69676 5.67668C2.2684 6.05522 1.09197 7.19185 0.700172 8.59895C0 11.1693 0 16.5 0 16.5C0 16.5 0 21.8575 0.700172 24.401C1.09238 25.8081 2.24039 26.9175 3.69697 27.2964C6.38539 28 17 28 17 28C17 28 27.6423 28 30.3029 27.3233C31.7595 26.9446 32.9077 25.8352 33.2999 24.4281C33.9999 21.8575 33.9999 16.5271 33.9999 16.5271C33.9999 16.5271 34.0279 11.1693 33.2995 8.59895ZM13.6112 21.4246V11.5754L22.4611 16.5L13.6112 21.4246Z" fill="white"/>
</svg>
