<svg width="331" height="54" viewBox="0 0 331 54" fill="none" xmlns="http://www.w3.org/2000/svg">
<path fill-rule="evenodd" clip-rule="evenodd" d="M10.5667 0C10.2336 0 9.9142 0.132308 9.67869 0.367819L0.367819 9.67869C0.132309 9.9142 0 10.2336 0 10.5667V48.9767C0 51.751 2.24899 54 5.02326 54H320.433C320.766 54 321.086 53.8677 321.321 53.6322L330.632 44.3213C330.868 44.0858 331 43.7664 331 43.4333V5.02326C331 2.24899 328.751 0 325.977 0H10.5667ZM329.744 37.6744L314.674 52.7442H5.02326C2.94256 52.7442 1.25581 51.0574 1.25581 48.9767V16.3256L16.3256 1.25581H325.977C328.057 1.25581 329.744 2.94256 329.744 5.02326V37.6744Z" fill="#242F5A"/>
</svg>
