<svg width="81" height="29" viewBox="0 0 81 29" fill="none" xmlns="http://www.w3.org/2000/svg">
<path fill-rule="evenodd" clip-rule="evenodd" d="M5.50331 1.1526e-05C5.32971 -9.99559e-05 5.16318 0.0688143 5.04043 0.191571L0.19152 5.04048C0.0688664 5.16313 -3.95719e-05 5.32948 -3.95719e-05 5.50294V25.5068C-3.95719e-05 26.9516 1.17123 28.1229 2.61606 28.1229L75.4969 28.1697C75.6705 28.1698 75.837 28.1009 75.9598 27.9781L80.8087 23.1292C80.9313 23.0066 81.0002 22.8402 81.0002 22.6668V2.66291C81.0002 1.21808 79.829 0.0468129 78.3841 0.0468129L5.50331 1.1526e-05ZM80.3462 19.6676L72.4979 27.5158L2.61606 27.4689C1.53244 27.4689 0.653985 26.5904 0.653985 25.5068V8.50216L8.50228 0.653862L78.3841 0.700838C79.4678 0.700838 80.3462 1.57929 80.3462 2.66291V19.6676Z" fill="#242F5A"/>
</svg>
