<svg width="240" height="162" viewBox="0 0 240 162" fill="none" xmlns="http://www.w3.org/2000/svg">
<path fill-rule="evenodd" clip-rule="evenodd" d="M12.4757 0C12.0824 0 11.7053 0.15621 11.4273 0.434269L0.43427 11.4273C0.156212 11.7053 0 12.0824 0 12.4757V155.977C0 159.252 2.65529 161.907 5.93076 161.907H227.524C227.917 161.907 228.294 161.751 228.573 161.473L239.566 150.48C239.844 150.202 240 149.825 240 149.432V5.93076C240 2.65529 237.344 0 234.069 0H12.4757ZM238.517 142.633L220.725 160.425H5.93076C3.47416 160.425 1.48269 158.433 1.48269 155.977V19.275L19.275 1.48269H234.069C236.526 1.48269 238.517 3.47416 238.517 5.93076V142.633Z" fill="#2D76FF"/>
</svg>
