<svg width="54" height="54" viewBox="0 0 54 54" fill="none" xmlns="http://www.w3.org/2000/svg">
<path fill-rule="evenodd" clip-rule="evenodd" d="M8.61872 0C8.22557 0 7.84853 0.156176 7.57054 0.434171L0.434171 7.57054C0.156176 7.84853 0 8.22557 0 8.61872V49.9976C0 52.2081 1.79191 54 4.00235 54H45.3813C45.7744 54 46.1515 53.8438 46.4295 53.5658L53.5658 46.4295C53.8438 46.1515 54 45.7744 54 45.3813V4.00235C54 1.79191 52.2081 0 49.9976 0H8.61872ZM52.9994 40.9924L40.9924 52.9994H4.00235C2.34452 52.9994 1.00059 51.6555 1.00059 49.9976V13.0076L13.0076 1.00059H49.9976C51.6555 1.00059 52.9994 2.34452 52.9994 4.00235V40.9924Z" fill="#242F5A"/>
</svg>
