<svg width="86" height="18" viewBox="0 0 86 18" fill="none" xmlns="http://www.w3.org/2000/svg">
<path d="M15.6739 0V17.4454H13.4825L3.4788 6.52253V17.4454H0V0H2.19137L12.1951 10.9228V0H15.6739Z" fill="white"/>
<path d="M20.5079 17.4454L17.8376 13.6501V7.24201H27.7153V10.4608H21.0589V12.2149L22.4121 13.9691H30.4217V17.4454H20.5079ZM17.8376 3.21883V0H30.4217V3.21883H17.8376Z" fill="white"/>
<path d="M49.1603 17.4454V0H52.3816V17.4454H49.1603Z" fill="white"/>
<path d="M67.6474 3.47632L63.5879 8.70674L67.6474 17.4454H63.9833L60.7357 10.4608H57.7697V17.4454H54.5484V6.98453H60.8701L63.5765 3.47632H54.5484V0H67.6474V3.47632Z" fill="white"/>
<path d="M82.4589 17.4454L77.3907 4.30553L73.4181 14.2265H77.8467L79.4573 17.4454H68.7813L75.5225 0H79.2588L86.0001 17.4454H82.4589Z" fill="white"/>
<path d="M42.7866 6.63624L47.4868 0.0636233H43.5388L40.8707 3.89523L42.7866 6.63624Z" fill="white"/>
<path d="M42.5834 9.95986L48.0018 17.509H43.7963L39.3924 11.3537L34.9884 17.509H31.0405L37.5471 8.28729L31.5554 0.0636233H35.5034L39.0797 5.0095L39.0693 5.03819L42.5726 9.97503L42.5834 9.95986Z" fill="white"/>
</svg>
